<svg version="1.1" id="Layer_1" xmlns="http://www.w3.org/2000/svg" xmlns:xlink="http://www.w3.org/1999/xlink" x="0px" y="0px" viewBox="0 0 50 50" style="enable-background:new 0 0 50 50;" xml:space="preserve">
<g>
	<path d="M45.455,18.182H27.273h-4.546H11.364H6.818H4.545C2.035,18.182,0,20.217,0,22.728v22.727C0,47.965,2.035,50,4.545,50
		h40.909C47.965,50,50,47.965,50,45.454V22.728C50,20.217,47.965,18.182,45.455,18.182z M25,44.318
		c-5.651,0-10.229-4.579-10.229-10.228c0-5.65,4.579-10.229,10.229-10.229c5.644,0,10.223,4.579,10.227,10.229
		C35.223,39.739,30.644,44.318,25,44.318z M45.455,27.273h-6.818v-4.545h6.818V27.273z" id="id_102" style="fill: rgb(92, 207, 230);"></path>
	<path d="M25,28.09c-3.315,0.007-5.997,2.686-6,6.001c0.003,3.315,2.686,5.996,6,5.999c3.312-0.003,5.993-2.684,6-5.999
		C30.992,30.775,28.312,28.097,25,28.09z" id="id_103" style="fill: rgb(95, 207, 230);"></path>
	<path d="M31.818,15.909c2.51,0,4.545-2.035,4.545-4.546V4.546C36.364,2.035,34.329,0,31.818,0H18.182
		c-2.51,0-4.545,2.035-4.545,4.546v6.817c0,2.511,2.035,4.546,4.545,4.546h4.545h4.546H31.818z M18.18,13.637
		c-1.252,0-2.271-1.022-2.271-2.273V4.546c0-1.252,1.019-2.273,2.271-2.273H31.82c1.252,0,2.273,1.021,2.273,2.273v6.817
		c0,1.252-1.021,2.273-2.273,2.273H18.18z" id="id_104" style="fill: rgb(95, 207, 230);"></path>
	<rect x="22.727" y="15.909" width="4.546" height="2.272" id="id_105" style="fill: rgb(95, 203, 230);"></rect>
	<rect x="6.818" y="15.909" width="4.545" height="2.272" id="id_106" style="fill: rgb(92, 198, 224);"></rect>
</g>
</svg>